# xmcd CD database file
#
# Track frame offsets:
#	150
#	17626
#	25971
#	47672
#	81097
#	103123
#	136198
#	153711
#	168000
#
# Disc length: 2825 seconds
#
# Revision: 0
# Processed by: cddbd v1.5.2PL0 Copyright (c) Steve Scherf et al.
# Submitted via: CDex 1.51
#
DISCID=660b0709
DTITLE=No Olho da Rua - Experiência nº 12
DYEAR=2009
DGENRE=Jazz
TTITLE0=Tocando na toca
TTITLE1=O feijão da Brê
TTITLE2=Pro meu pai se lembrar de Fernando de Noronha
TTITLE3=Samba no prato
TTITLE4=Malta
TTITLE5=Figueiras do Leblon
TTITLE6=Malí na roça
TTITLE7=Suburgringo
TTITLE8=Experiência nº 12
EXTD=YEAR: 2009
EXTT0=
EXTT1=
EXTT2=
EXTT3=
EXTT4=
EXTT5=
EXTT6=
EXTT7=
EXTT8=
PLAYORDER=
